<?xml version="1.0" standalone="no"?>
<!DOCTYPE svg PUBLIC "-//W3C//DTD SVG 20010904//EN"
 "http://www.w3.org/TR/2001/REC-SVG-20010904/DTD/svg10.dtd">
<svg version="1.0" xmlns="http://www.w3.org/2000/svg"
 width="633.000000pt" height="633.000000pt" viewBox="0 0 633.000000 633.000000"
 preserveAspectRatio="xMidYMid meet">
<metadata>
Created by potrace 1.11, written by Peter Selinger 2001-2013
</metadata>
<g transform="translate(0.000000,633.000000) scale(0.100000,-0.100000)"
fill="#000000" stroke="none">
<path d="M3000 6319 c-252 -12 -495 -54 -747 -129 -1105 -331 -1953 -1259
-2183 -2390 -44 -217 -61 -396 -61 -635 0 -553 129 -1055 394 -1534 l52 -94
290 7 c159 4 322 11 360 16 39 5 251 9 472 10 248 0 412 4 429 10 14 6 47 28
71 50 72 63 117 80 210 80 52 0 84 4 91 13 11 13 34 157 35 222 0 22 -3 80 -7
128 l-8 88 -72 82 c-147 167 -166 205 -250 504 -18 63 -26 116 -26 169 0 43
-4 91 -9 108 -5 17 -14 49 -19 71 -5 22 -19 65 -31 95 -12 30 -21 65 -21 78 0
14 -17 70 -39 126 -77 202 -92 354 -42 424 36 51 32 100 -29 392 -6 30 -13 71
-16 90 -5 31 -4 33 9 18 25 -31 30 -20 25 57 -3 42 -1 78 3 81 5 3 9 15 9 27
0 12 9 33 20 47 11 14 20 37 20 52 0 15 4 29 9 32 5 3 19 27 31 52 19 41 21
61 19 160 -2 79 0 117 9 126 7 7 12 21 12 32 0 33 65 138 133 213 36 39 88 99
116 133 29 34 64 72 79 84 37 30 107 76 115 76 10 0 97 61 97 69 0 13 65 46
94 48 16 1 48 15 71 32 36 26 53 31 97 31 30 0 74 7 99 15 24 8 85 19 134 24
50 5 114 15 143 22 39 9 59 9 75 1 53 -27 127 -44 182 -45 49 0 66 -4 95 -26
25 -18 48 -26 80 -27 25 -1 58 -6 73 -13 16 -6 32 -11 37 -11 5 0 25 -9 44
-21 19 -11 43 -19 53 -18 26 3 51 -10 113 -58 30 -24 62 -43 72 -43 17 0 78
-76 112 -140 10 -19 29 -48 42 -63 13 -16 24 -33 24 -38 0 -5 18 -29 41 -53
43 -47 108 -186 116 -246 3 -19 10 -48 18 -65 7 -16 18 -64 25 -105 13 -80 34
-110 75 -110 22 0 22 -3 28 -172 4 -95 7 -225 7 -288 l0 -114 34 -36 c31 -33
35 -44 56 -174 18 -110 20 -146 12 -175 -6 -20 -14 -76 -17 -126 -3 -49 -13
-130 -21 -180 -8 -49 -19 -117 -24 -150 -6 -33 -15 -108 -20 -168 -6 -59 -13
-113 -16 -121 -3 -7 -9 -53 -14 -102 -22 -221 -81 -362 -205 -496 -70 -74 -73
-79 -77 -135 -3 -32 -3 -132 0 -223 l5 -165 43 -85 c88 -176 145 -230 248
-236 55 -3 120 -15 376 -68 85 -17 345 -59 465 -75 44 -6 152 -13 240 -16
l160 -6 61 93 c276 423 442 882 499 1383 21 184 21 516 0 700 -102 891 -563
1681 -1290 2210 -580 422 -1276 627 -2015 594z"/>
</g>
</svg>
